<?xml version="1.0" encoding="UTF-8"?>
<svg id="Calque_2" data-name="Calque 2" xmlns="http://www.w3.org/2000/svg" viewBox="0 0 231 240.47">
  <defs>
    <style>
      .cls-1 {
        fill: #fff;
      }

      .cls-2 {
        fill: #5537a0;
      }
    </style>
  </defs>
  <g id="Calque_3" data-name="Calque 3">
    <rect class="cls-2" width="231" height="231" rx="39.81" ry="39.81"/>
    <path class="cls-1" d="M138.38,30.15c-.59-5.65-2.87-10.69-6.74-14.86-3.58-3.86-8.31-6.68-13.31-8.25-11.08-3.48-23.23,.33-30.73,9.07-6.53,7.6-9.69,17.52-8.48,27.5,1.22,10.02,5.95,19.4,13.26,26.38,9.59,9.16,22.37,14.22,35.36,15.94,2.34,.31,4.6-2.29,4.5-4.5-.12-2.7-1.99-4.17-4.5-4.5,.88,.12-.05-.01-.26-.05-.28-.04-.56-.09-.83-.13-.62-.1-1.25-.22-1.87-.34-1.25-.25-2.48-.53-3.71-.85-2.53-.66-5.02-1.49-7.44-2.47-.1-.04-.92-.39-.44-.18,.57,.25-.7-.31-.63-.28-.52-.23-1.03-.47-1.54-.72-1.21-.59-2.39-1.22-3.56-1.89-1.04-.6-2.06-1.23-3.06-1.9-.53-.35-1.05-.71-1.56-1.08-.29-.21-.57-.42-.85-.62-.64-.47,.11,.11-.26-.2-1.69-1.42-3.34-2.85-4.84-4.48-.67-.73-1.31-1.5-1.94-2.27,.7,.87-.42-.58-.56-.77-.34-.47-.66-.95-.98-1.44-1.13-1.75-2.09-3.58-2.97-5.47-.09-.2-.32-.8,.05,.13-.08-.21-.17-.42-.26-.64-.19-.48-.37-.96-.53-1.44-.35-1.02-.67-2.05-.93-3.1-.24-.93-.43-1.87-.59-2.82-.05-.27-.13-.56-.13-.83,0,.12,.12,1.04,.03,.19-.06-.56-.12-1.12-.15-1.68-.06-.95-.09-1.9-.07-2.85,0-.5,.03-1.01,.06-1.51,.03-.41,.3-1.3,.16-1.67,.15,.41-.12,.76-.02,.2,.05-.28,.09-.55,.14-.83,.09-.5,.19-.99,.31-1.48,.23-.99,.51-1.97,.84-2.93,.17-.49,.36-.96,.53-1.44,.22-.61-.33,.71-.05,.12,.12-.26,.24-.53,.36-.79,.45-.95,.95-1.87,1.5-2.77,.28-.46,.57-.91,.87-1.35,.15-.21,1.1-1.5,.48-.7,.69-.88,1.43-1.73,2.2-2.53,.83-.86,1.72-1.68,2.67-2.42-.65,.5-.1,.08,.04,0,.22-.15,.43-.3,.65-.45,.54-.36,1.09-.7,1.66-1.02s1.14-.59,1.72-.88c.16-.08,.79-.32-.02,0,.24-.09,.48-.19,.72-.28,1.14-.42,2.31-.75,3.49-.99,.23-.05,1.98-.28,.88-.17,.51-.05,1.02-.1,1.53-.12,1.24-.06,2.45,.04,3.69,.11,.76,.04-1.06-.21,.17,.02,.33,.06,.65,.11,.98,.18,.66,.13,1.31,.29,1.95,.48s1.29,.4,1.92,.64c.22,.08,.44,.17,.66,.26-.72-.28-.16-.07,.23,.11,1.08,.5,2.12,1.08,3.12,1.72,.5,.32,.98,.68,1.47,1.01-.75-.51-.23-.19-.07-.05,.27,.23,.55,.45,.82,.69,.89,.78,1.72,1.62,2.48,2.52,.15,.18,.3,.36,.45,.55-.66-.83,0,.02,.13,.22,.33,.48,.65,.98,.94,1.48s.54,1.04,.81,1.56c.51,1.01-.2-.61,.03,.06,.11,.33,.25,.66,.36,1,.18,.56,.34,1.14,.47,1.72,.05,.23,.1,.47,.14,.7,.22,1.2-.03-.53,.07,.42,.25,2.33,1.89,4.62,4.5,4.5,2.23-.1,4.76-1.99,4.5-4.5h0Z"/>
    <path class="cls-1" d="M75.95,75.29c7.89,12.39,20.89,20.65,34.91,24.49,6.21,1.7,12.64,2.4,18.91,3.83,1.58,.36,3.14,.76,4.69,1.24,.74,.23,1.47,.47,2.19,.74,.33,.12,.66,.25,.99,.38,.09,.03,.64,.25,.12,.04-.6-.24,.32,.14,.43,.19,1.39,.63,2.74,1.35,4.03,2.18,.35,.22,.69,.46,1.03,.7,.14,.1,.29,.21,.43,.31-.04-.03-.59-.48-.2-.16,.65,.54,1.3,1.09,1.91,1.68s1.14,1.16,1.66,1.77c.21,.24,.72,.9,.24,.27,.3,.4,.59,.8,.87,1.21,.91,1.33,1.7,2.74,2.38,4.19,.1,.22,.2,.45,.31,.68-.02-.05-.28-.7-.09-.22,.13,.35,.27,.69,.4,1.04,.3,.81,.56,1.64,.79,2.48,.21,.78,.4,1.56,.55,2.35,.07,.37,.13,.73,.2,1.1,.02,.09,.12,.71,.03,.14-.1-.65,.04,.38,.06,.51,.17,1.6,.22,3.22,.16,4.83-.03,.81-.13,1.61-.18,2.41-.04,.53,.04-.23,.04-.27-.04,.25-.07,.49-.11,.73-.07,.43-.15,.85-.24,1.28-.34,1.64-.8,3.25-1.38,4.81-.12,.32-.42,1.03-.1,.3-.17,.4-.35,.79-.54,1.18-.35,.72-.73,1.44-1.14,2.13s-.84,1.37-1.31,2.02c-.25,.35-.5,.7-.76,1.04,.53-.69-.13,.14-.33,.38-1.06,1.26-2.22,2.44-3.45,3.54-.27,.24-.55,.48-.83,.72-.15,.12-1.1,.87-.69,.56s-.44,.32-.58,.41c-.35,.25-.7,.49-1.06,.73-1.38,.91-2.82,1.73-4.3,2.46-.39,.19-.78,.37-1.17,.55-.79,.37,.53-.2-.28,.12s-1.6,.62-2.42,.89c-1.57,.52-3.18,.94-4.81,1.25-.36,.07-.72,.13-1.09,.19-.17,.03-1.24,.17-.67,.11s-.67,.07-.86,.08c-.43,.04-.85,.07-1.28,.1-1.65,.1-3.3,.08-4.94-.04-.37-.03-.73-.06-1.1-.1-.25-.03-.49-.06-.74-.09,.05,0,.8,.13,.28,.03-.85-.16-1.7-.29-2.54-.47-1.56-.35-3.09-.79-4.6-1.32-.4-.14-.81-.29-1.21-.45-.33-.13-1.01-.42-.29-.1-.79-.34-1.57-.7-2.33-1.09-1.48-.75-2.92-1.58-4.31-2.49-.62-.4-1.23-.82-1.82-1.26-.25-.18-1.09-.84-.42-.3-.34-.27-.68-.54-1.01-.81-1.28-1.06-2.51-2.19-3.67-3.39s-2.24-2.46-3.29-3.75c-.32-.39,.1,.14,.14,.18-.11-.15-.22-.3-.33-.44-.26-.35-.51-.7-.76-1.05-.46-.65-.9-1.32-1.32-2-.88-1.4-1.68-2.85-2.41-4.34-1.04-2.12-4.22-2.87-6.16-1.61-2.17,1.4-2.73,3.89-1.61,6.16,6.34,12.9,18.53,23.38,32.64,26.65s30.42-1.13,40.55-12.03,12.73-28.49,5.59-42.22c-3.38-6.5-8.94-11.61-15.65-14.51s-13.24-3.92-20.1-5.16c-3.37-.61-6.74-1.28-10.03-2.26-1.73-.51-3.44-1.09-5.12-1.74-.42-.16-.84-.34-1.26-.5,.73,.29-.07-.03-.35-.15-.89-.39-1.76-.8-2.63-1.24-3.18-1.59-6.18-3.46-9.02-5.58,.73,.55-.28-.23-.45-.37-.35-.28-.69-.57-1.03-.86-.68-.58-1.35-1.19-2-1.81-1.3-1.24-2.53-2.56-3.68-3.94-.16-.2-.33-.4-.49-.6-.04-.05-.44-.55-.13-.15,.27,.34-.48-.65-.58-.78-.53-.73-1.03-1.49-1.52-2.25-1.26-1.98-4.06-2.97-6.16-1.61-1.98,1.28-2.97,4.03-1.61,6.16h0Z"/>
    <path class="cls-1" d="M117.98,84.08c6.21,1.1,12.46,2.13,18.56,3.77,3.04,.82,6.05,1.78,8.95,3-.9-.38,.34,.16,.43,.2,.25,.11,.5,.23,.74,.34,.74,.35,1.47,.71,2.19,1.1,1.45,.77,2.86,1.62,4.22,2.55,.57,.39,1.13,.79,1.68,1.21-.76-.58,.26,.22,.34,.28,.3,.25,.6,.5,.9,.75,1.08,.93,2.11,1.92,3.09,2.95s1.91,2.11,2.79,3.22c-.62-.8,.16,.22,.23,.32,.23,.31,.45,.63,.67,.95,.44,.64,.86,1.28,1.27,1.94,.75,1.21,1.44,2.45,2.07,3.71,.35,.69,.67,1.4,.99,2.1,.35,.79,.07,.15,0,0,.19,.48,.38,.96,.57,1.44,1.04,2.79,1.82,5.68,2.32,8.62,.07,.38,.12,.77,.18,1.16-.02-.16-.11-.95-.01-.09,.08,.74,.16,1.47,.21,2.21,.11,1.46,.14,2.93,.11,4.4-.03,1.33-.11,2.66-.25,3.99-.03,.24-.05,.48-.08,.72-.14,1.22,.17-.97-.03,.24-.13,.77-.25,1.54-.41,2.31-.53,2.65-1.28,5.25-2.24,7.77-.13,.34-.26,.67-.39,1-.07,.17-.56,1.27-.1,.25-.24,.55-.49,1.09-.74,1.64-.62,1.3-1.29,2.57-2.01,3.82-.66,1.14-1.37,2.26-2.12,3.35-.37,.55-.76,1.08-1.15,1.61-.14,.19-.65,.85-.06,.09-.29,.38-.6,.76-.9,1.13-1.76,2.14-3.69,4.15-5.76,6-.45,.4-.91,.8-1.37,1.19-.28,.23-.56,.46-.84,.69-.13,.1-1.1,.83-.24,.19-1.12,.83-2.26,1.64-3.43,2.39-2.35,1.51-4.82,2.81-7.38,3.94-1.3,.57,.8-.29-.53,.22-.54,.21-1.08,.42-1.62,.62-.81,.3-1.63,.58-2.46,.84-1.79,.56-3.61,1.04-5.44,1.44-.85,.18-1.7,.34-2.55,.49-.43,.07-.85,.14-1.28,.2-.54,.08-.57,.08-.09,.01-.29,.04-.57,.07-.86,.1-1.72,.19-3.45,.3-5.18,.34-1.88,.04-3.75,0-5.62-.13-1.01-.07-2.01-.18-3.02-.29-.15-.02-.88-.13-.09,0-.57-.09-1.14-.17-1.71-.27-3.7-.64-7.33-1.64-10.85-2.97-2.21-.83-5.03,.92-5.54,3.14-.58,2.56,.78,4.64,3.14,5.54,13.4,5.06,28.72,5.33,42.31,.82,12.24-4.06,22.73-11.89,30.09-22.47,6.88-9.89,10.57-22.26,9.7-34.32-.95-13.11-6.8-25.9-16.73-34.64-11.82-10.41-27.27-13.12-42.27-15.78-2.31-.41-4.96,.62-5.54,3.14-.5,2.19,.66,5.1,3.14,5.54h0Z"/>
    <path class="cls-1" d="M75.38,74.56c1.31,20.98,2.21,41.98,2.69,62.99,.49,21.01,.56,42.03,.22,63.04-.19,11.79-.51,23.59-.96,35.37-.09,2.35,2.13,4.61,4.5,4.5,2.51-.11,4.4-1.98,4.5-4.5,.8-21,1.19-42.02,1.16-63.03s-.46-42.03-1.31-63.03c-.48-11.79-1.08-23.57-1.82-35.34-.15-2.34-1.97-4.61-4.5-4.5-2.31,.1-4.66,1.98-4.5,4.5h0Z"/>
  </g>
</svg>